Hanif_Shallow_2_5_grf.mot
version=1
nRows=53
nColumns=19
inDegrees=yes
endheader
time	right_ground_force_vx	right_ground_force_vy	right_ground_force_vz	right_ground_force_px	right_ground_force_py	right_ground_force_pz	right_ground_torque_x	right_ground_torque_y	right_ground_torque_z	left_ground_force_vx	left_ground_force_vy	left_ground_force_vz	left_ground_force_px	left_ground_force_py	left_ground_force_pz	left_ground_torque_x	left_ground_torque_y	left_ground_torque_z
5.325000	-1.170600	209.053000	49.641400	0.228814	0.000000	-1.437570	-14.314800	0.066911	6.398310	-7.968160	190.879000	-44.342500	0.244868	0.000000	-0.970906	13.080200	-0.303031	9.222740
5.330000	-1.267770	202.835000	49.090200	0.228402	0.000000	-1.436870	-14.031200	0.014700	6.123040	-7.682960	185.988000	-43.274900	0.246207	0.000000	-0.971630	12.878200	-0.227194	9.234740
5.335000	-1.500580	199.711000	48.338400	0.229547	0.000000	-1.437090	-13.773600	-0.112443	6.244300	-7.746890	181.383000	-42.787100	0.245714	0.000000	-0.972019	12.633400	-0.194206	8.925020
5.340000	-1.784130	197.820000	47.660800	0.229844	0.000000	-1.439570	-13.153200	-0.160945	6.236140	-7.853280	177.866000	-42.488500	0.245676	0.000000	-0.972514	12.480800	-0.154244	8.755010
5.345000	-2.329130	193.051000	47.106200	0.230685	0.000000	-1.437830	-13.175700	-0.309247	6.239850	-7.173930	174.738000	-41.838400	0.246530	0.000000	-0.972527	12.249300	0.002072	8.715540
5.350000	-2.110330	191.700000	46.541300	0.229807	0.000000	-1.437990	-13.050400	-0.305653	6.011380	-8.037250	174.372000	-41.489300	0.245354	0.000000	-0.972164	12.170200	0.053394	8.475820
5.355000	-2.598660	189.150000	45.618100	0.229687	0.000000	-1.438150	-12.849600	-0.398562	5.888310	-8.004360	167.338000	-40.437200	0.247640	0.000000	-0.973760	11.955600	0.093658	8.551750
5.360000	-2.716020	185.223000	45.162200	0.230188	0.000000	-1.438100	-12.591200	-0.553005	5.834010	-7.983010	165.508000	-39.913100	0.247069	0.000000	-0.973187	11.726800	0.153395	8.341560
5.365000	-3.239970	181.828000	43.958300	0.230545	0.000000	-1.437480	-12.475400	-0.673786	5.769310	-8.055210	160.931000	-38.502300	0.247457	0.000000	-0.974067	11.546700	0.207077	8.161850
5.370000	-3.545500	178.226000	43.114200	0.231597	0.000000	-1.437300	-12.258800	-0.858444	5.812220	-8.386460	158.266000	-37.665300	0.247797	0.000000	-0.973271	11.232900	0.287851	8.064750
5.375000	-4.028280	172.986000	42.241300	0.231171	0.000000	-1.437890	-11.798600	-0.894108	5.562420	-8.367710	153.113000	-36.073900	0.249232	0.000000	-0.975491	11.211100	0.337364	8.019920
5.380000	-4.880250	169.406000	40.389700	0.231530	0.000000	-1.436420	-11.801100	-1.111710	5.460910	-8.494410	149.410000	-35.411400	0.249262	0.000000	-0.974997	10.871000	0.351850	7.835190
5.385000	-5.432650	165.882000	39.514400	0.231237	0.000000	-1.436490	-11.544500	-1.207320	5.277990	-9.231720	146.760000	-34.475200	0.248587	0.000000	-0.972815	10.371700	0.322518	7.599680
5.390000	-5.688300	164.004000	39.011400	0.233091	0.000000	-1.436110	-11.475500	-1.317100	5.515320	-9.567930	142.029000	-33.014000	0.250194	0.000000	-0.974834	10.333400	0.400931	7.580730
5.395000	-6.674460	163.753000	37.846100	0.232201	0.000000	-1.437450	-11.232700	-1.486850	5.316760	-9.337370	140.039000	-32.468400	0.249983	0.000000	-0.974121	10.089500	0.340636	7.450860
5.400000	-6.910430	161.902000	37.241700	0.234179	0.000000	-1.435560	-11.411800	-1.598020	5.570760	-9.544600	137.793000	-32.029500	0.251478	0.000000	-0.976011	10.191300	0.454981	7.532820
5.405000	-7.459590	164.747000	37.038200	0.234261	0.000000	-1.435940	-11.544300	-1.750040	5.653810	-9.480120	140.169000	-31.695700	0.251784	0.000000	-0.976783	10.464600	0.528066	7.668430
5.410000	-7.622130	163.414000	36.863700	0.234242	0.000000	-1.437200	-11.241600	-1.809590	5.590490	-10.079900	142.374000	-31.518800	0.251027	0.000000	-0.976184	10.544300	0.583229	7.655180
5.415000	-7.512760	164.080000	36.130000	0.235045	0.000000	-1.434000	-11.809000	-1.922540	5.724790	-9.972470	142.365000	-31.863400	0.251917	0.000000	-0.977760	10.768300	0.613525	7.790980
5.420000	-8.401280	164.247000	36.167100	0.234551	0.000000	-1.434420	-11.753300	-1.921630	5.659390	-10.441900	144.401000	-32.346300	0.251448	0.000000	-0.975818	10.644500	0.634134	7.830170
5.425000	-8.151490	165.761000	35.726500	0.235503	0.000000	-1.434390	-11.864700	-1.962270	5.861230	-10.112600	146.715000	-32.390200	0.251526	0.000000	-0.976191	10.858500	0.664107	7.944930
5.430000	-8.157230	166.756000	35.367100	0.234953	0.000000	-1.435580	-11.733400	-1.994920	5.789510	-9.893720	150.752000	-32.663700	0.251073	0.000000	-0.975155	10.993800	0.609433	8.083460
5.435000	-8.059090	170.057000	34.860000	0.234159	0.000000	-1.434190	-12.202200	-1.967130	5.768500	-9.525030	153.091000	-32.375100	0.250810	0.000000	-0.975059	11.137900	0.621527	8.140110
5.440000	-7.847580	171.132000	35.106900	0.235252	0.000000	-1.433470	-12.407100	-1.899520	6.013670	-9.706940	155.051000	-32.269400	0.249470	0.000000	-0.974878	11.255400	0.526058	8.038280
5.445000	-7.974860	174.198000	35.064300	0.235089	0.000000	-1.434650	-12.420200	-1.991930	6.073750	-9.660040	155.991000	-31.749700	0.249642	0.000000	-0.975066	11.350600	0.512112	8.101880
5.450000	-7.825760	176.443000	34.575900	0.235346	0.000000	-1.434160	-12.666500	-1.998550	6.194520	-9.821510	159.047000	-30.969700	0.249280	0.000000	-0.974977	11.552700	0.533118	8.168920
5.455000	-8.607060	180.430000	34.415800	0.236208	0.000000	-1.434040	-12.976500	-2.012470	6.505000	-10.280100	161.096000	-30.742200	0.249185	0.000000	-0.974992	11.714500	0.419418	8.273250
5.460000	-9.132030	183.364000	34.419000	0.235966	0.000000	-1.432890	-13.396900	-2.079290	6.562310	-10.632300	166.387000	-30.151800	0.249525	0.000000	-0.975469	12.173600	0.454142	8.568180
5.465000	-9.246680	189.197000	34.753600	0.236138	0.000000	-1.433710	-13.670000	-2.071430	6.810150	-10.810200	173.764000	-30.096400	0.248371	0.000000	-0.974383	12.516100	0.423556	8.717550
5.470000	-9.053080	195.131000	35.118400	0.235586	0.000000	-1.433840	-14.075800	-2.003150	6.925990	-11.960500	178.431000	-30.024600	0.248427	0.000000	-0.975344	13.030200	0.501639	8.946760
5.475000	-8.795830	200.948000	35.904600	0.236699	0.000000	-1.433390	-14.586000	-2.051310	7.357690	-12.452000	181.940000	-30.094300	0.249048	0.000000	-0.975520	13.325400	0.463886	9.240670
5.480000	-8.764060	206.159000	36.650000	0.236205	0.000000	-1.434100	-14.818700	-2.047390	7.447970	-12.599000	187.182000	-29.761900	0.249845	0.000000	-0.975491	13.698900	0.467457	9.636950
5.485000	-8.890710	212.213000	36.855000	0.235741	0.000000	-1.432940	-15.504500	-1.975710	7.583240	-12.924200	192.263000	-30.580100	0.249880	0.000000	-0.974954	13.971700	0.409428	9.915430
5.490000	-8.310820	220.805000	37.822900	0.235569	0.000000	-1.433870	-15.927400	-1.928220	7.856700	-12.695600	197.578000	-31.650300	0.249945	0.000000	-0.974250	14.205100	0.497691	10.186400
5.495000	-7.873740	225.041000	39.396400	0.235929	0.000000	-1.432560	-16.530700	-1.884650	8.104520	-12.917800	202.629000	-32.686000	0.249910	0.000000	-0.975196	14.763600	0.452264	10.453800
5.500000	-7.978310	233.489000	40.796700	0.235705	0.000000	-1.433210	-17.002600	-1.853240	8.368990	-13.044100	207.609000	-33.978800	0.248965	0.000000	-0.975129	15.107700	0.487059	10.512200
5.505000	-7.865480	240.843000	42.138800	0.235922	0.000000	-1.433180	-17.546800	-1.827080	8.696990	-12.957600	212.793000	-35.467100	0.248677	0.000000	-0.974883	15.426300	0.522246	10.714100
5.510000	-7.628700	245.051000	43.176200	0.235939	0.000000	-1.434820	-17.452500	-1.780570	8.862280	-12.760800	220.437000	-37.347800	0.247604	0.000000	-0.973054	15.565000	0.555295	10.852200
5.515000	-7.623730	251.482000	45.079900	0.235037	0.000000	-1.434680	-17.946900	-1.791170	8.870650	-12.975900	225.323000	-38.743400	0.247389	0.000000	-0.974238	16.176500	0.590740	11.050800
5.520000	-7.561260	256.732000	47.089400	0.234390	0.000000	-1.435580	-18.091600	-1.728750	8.906630	-13.271000	231.711000	-40.342100	0.247333	0.000000	-0.971656	16.033200	0.638978	11.347400
5.525000	-7.122890	260.970000	49.099200	0.233508	0.000000	-1.436330	-18.196400	-1.613280	8.844090	-13.388300	235.960000	-41.971700	0.246422	0.000000	-0.972085	16.425400	0.684462	11.343200
5.530000	-6.586210	262.886000	50.825800	0.233432	0.000000	-1.436950	-18.164000	-1.712520	8.874220	-13.708700	240.278000	-43.587000	0.246494	0.000000	-0.971859	16.672200	0.748688	11.574600
5.535000	-6.518810	266.303000	52.355300	0.233006	0.000000	-1.437390	-18.282600	-1.653160	8.892310	-13.573600	245.857000	-45.485200	0.245675	0.000000	-0.971462	16.959400	0.696986	11.656900
5.540000	-5.578310	267.644000	53.604000	0.232828	0.000000	-1.437140	-18.441500	-1.550930	8.905000	-13.115700	248.810000	-47.204000	0.245178	0.000000	-0.971150	17.079300	0.693603	11.683400
5.545000	-5.816460	270.182000	54.425100	0.231912	0.000000	-1.439130	-18.082100	-1.467350	8.754570	-12.995700	252.864000	-49.086800	0.244764	0.000000	-0.970189	17.112200	0.686469	11.782000
5.550000	-5.032560	272.101000	55.562700	0.231003	0.000000	-1.438800	-18.296000	-1.440800	8.562600	-12.567100	255.525000	-50.687800	0.244567	0.000000	-0.970605	17.400100	0.556714	11.894200
5.555000	-4.301090	273.158000	56.422300	0.230618	0.000000	-1.438530	-18.439100	-1.404930	8.490250	-12.146100	259.512000	-51.894900	0.243593	0.000000	-0.969403	17.346700	0.626358	11.801200
5.560000	-3.692930	272.871000	56.338100	0.230352	0.000000	-1.438650	-18.385600	-1.346160	8.408600	-11.767900	259.261000	-52.744300	0.243670	0.000000	-0.970200	17.534200	0.631734	11.822900
5.565000	-2.963460	271.543000	56.480100	0.229918	0.000000	-1.439390	-18.092800	-1.304880	8.245270	-11.089900	262.831000	-53.749200	0.243303	0.000000	-0.970014	17.717600	0.596970	11.887200
5.570000	-2.735330	274.161000	56.230400	0.229229	0.000000	-1.439760	-18.167700	-1.176190	8.146580	-10.805700	264.273000	-53.688100	0.242732	0.000000	-0.969910	17.781900	0.587095	11.786600
5.575000	-2.467470	271.280000	56.251900	0.229314	0.000000	-1.439820	-17.960400	-1.103050	8.099410	-10.473600	267.100000	-54.176800	0.242638	0.000000	-0.968861	17.687500	0.551090	11.885300
5.580000	-2.103920	270.241000	56.085000	0.229243	0.000000	-1.439790	-17.897200	-1.107220	8.042180	-9.976080	268.217000	-54.359500	0.242347	0.000000	-0.969080	17.817700	0.438320	11.869400
5.585000	-1.623540	269.788000	55.299500	0.227949	0.000000	-1.440480	-17.680700	-0.996997	7.674590	-9.547180	270.359000	-54.412700	0.242420	0.000000	-0.969408	18.043200	0.415516	11.977300
